<svg xmlns="http://www.w3.org/2000/svg" xml:space="preserve" width="800" height="800" viewBox="0 0 512 512"><path d="M6.962 266.753c22.59-5.641 53.305-13.324 107.118-14.753a96 96 0 0 1-4.019-9.228c-20.94-.182-85.43 2.792-107.521 8.25a1.656 1.656 0 0 1-1.995-1.208 1.663 1.663 0 0 1 1.208-1.995c21.89-5.41 84.825-8.413 107.118-8.355-5.017-14.753-7.233-31.655-7.233-50.523 0-33.516 10.437-46.159 24.46-64.02-10.724-38.197 3.847-64.307 3.847-64.307s22.533-4.671 65.132 25.832c23.089-9.89 84.647-10.714 113.77-2.196 17.88-11.818 50.571-28.585 63.77-23.895 3.568 5.755 11.262 22.513 4.662 59.348 4.489 8.077 27.761 25.286 27.856 73.928-.384 17.938-2.245 33.084-5.698 45.899 55.54-.47 88.212 4.115 110.715 8.259a1.686 1.686 0 0 1 1.324 1.928c-.153.787-.844 1.353-1.611 1.353-.115 0-.211-.009-.326-.019-22.466-4.163-55.194-8.729-111.061-8.221a107 107 0 0 1-3.262 9.286c19.013.633 71.233 2.667 113.823 15.693a1.647 1.647 0 0 1 1.094 2.072c-.211.7-.863 1.16-1.573 1.16-.153 0-.326-.019-.479-.076-43.185-13.199-96.538-15.012-114.283-15.598-15.444 33.929-47.118 46.59-98.322 51.856 16.595 10.446 21.353 23.548 21.353 59.003 0 35.453-.479 40.211-.364 48.363.173 13.383 19.779 19.789 19.051 24.096-.729 4.299-16.403 3.607-23.731 1.047-20.758-7.232-18.687-24.5-18.687-24.5l-.69-47.404s1.42-25.516-8-25.516v77.592c0 16.863 11.799 21.986 11.799 28.221 0 10.715-21.563-1.016-28.202-7.703-10.134-10.168-8.982-31.73-8.733-48.785.23-16.471-.153-52.49-.153-52.49l-6.877.145s2.82 78.686-3.626 93.025c-8.335 18.408-33.477 24.74-33.477 16.355 0-5.641 6.196-3.846 9.621-16.488 2.925-10.754 1.928-90.975 1.928-90.975s-8.057 4.768-8.057 19.789c0 6.877-.192 46.158-.192 57.852 0 14.705-20.883 23.078-30.917 23.078-5.084 0-11.405-.248-11.405-2.943 0-6.801 19.099-10.793 19.099-24.941 0-12.268-.269-43.826-.269-43.826s-9.631 1.648-23.367 1.648c-34.628 0-45.583-22.1-50.792-34.465-6.782-16.105-15.578-23.673-24.921-29.717-5.736-3.712-7.06-8.096-.422-9.343 30.657-5.774 38.494 34.763 58.964 41.218 14.609 4.615 33.391 2.619 42.734-3.424 1.238-12.385 10.159-23.089 17.593-28.729-52.067-4.998-82.936-23.079-98.936-52.145-54.466 1.305-85.372 9.036-108.029 14.695-1.65.413-3.261.815-4.815 1.209a2 2 0 0 1-.403.038c-.739 0-1.41-.499-1.602-1.247a1.66 1.66 0 0 1 1.209-2.005c1.56-.384 3.162-.776 4.802-1.198"/></svg>